# xmcd
#
# Track frame offsets: 
#        150
#        16837
#        31715
#        45715
#        57697
#        71515
#        87400
#        101545
#        114667
#        129592
#        139470
#        153157
#        165897
#        181012
#        195330
#        211577
#        224777
#        236907
#
# Disc length: 3429 seconds
#
# Revision: 1
# Processed by: cddbd v1.5.2PL0 Copyright (c) Steve Scherf et al.
# Submitted via: ExactAudioCopy v0.99pb5
#
DISCID=f60d6312
DTITLE=TOM ASTOR - STATIONEN - SEINE GRÖSSTEN ERFOLGE
DYEAR=1900
DGENRE=Country
TTITLE0=Freundschaft (1993)
TTITLE1=Renovier Deine Seele (1992)
TTITLE2=Du Bist Da Wenn's Drum Geht (1993)
TTITLE3=Perhaps Love (With John Denver) (1997)
TTITLE4=Rocky Mountain Man (2001)
TTITLE5=Der Wind Wird Sich Bald Wieder Drehen (2000)
TTITLE6=Sie Ist Wie Ein Neues Leben (Just Another Rhinstone) (1994)
TTITLE7=Nutz Die Zeit (Alter Junge Nutz Die Zeit) (1990)
TTITLE8=Sonntagmorgen (1996)
TTITLE9=Adios Amigo (1991)
TTITLE10=Nur Wer Die Hölle Kennt (1993)
TTITLE11=Spar Dir Dein Lächeln Nicht Für Morgen Auf (1994)
TTITLE12=Sie War Jung Und Frei (1990)
TTITLE13=Die 50er Jahre Sterben Nie (Old Loves Never Die) (1986)
TTITLE14=Und Ich Seh' Die Trucks Vorüberzieh'n (1991)
TTITLE15=Endlos Weit - Nur Freiheit (Shanandoah) (1996)
TTITLE16=Danke Johnny Cash (1991)
TTITLE17=Auf Wiederseh'n, Goodbye (Live) (1997)
EXTD=ID3G: 2
EXTT0=
EXTT1=
EXTT2=
EXTT3=
EXTT4=
EXTT5=
EXTT6=
EXTT7=
EXTT8=
EXTT9=
EXTT10=
EXTT11=
EXTT12=
EXTT13=
EXTT14=
EXTT15=
EXTT16=
EXTT17=
PLAYORDER=
